<svg version="1" xmlns="http://www.w3.org/2000/svg" width="2133.333" height="2133.333" viewBox="0 0 1600.000000 1600.000000"><path d="M762 1C645.2 7.2 541.6 34.8 438 87.1c-123.3 62.2-225.8 153.2-303.4 269.2-40.5 60.6-74 129.8-96 198.7-64.2 201-47.5 415.4 47 604.2 71.7 143.3 187.6 263.8 327.9 340.8 94.5 51.9 199.8 84.8 305.5 95.4 29.9 3 43.8 3.7 80.4 3.7h37l132.3-132.3c72.7-72.7 131.9-132.5 131.4-132.8-2.3-1.5-55.2-73.3-54.4-74 .4-.4 2.5-1.3 4.6-2 2.4-.7 3.5-1.6 3-2.3-.4-.7-8-10.9-16.9-22.8l-16.2-21.6-20.4 3.9c-56.4 10.7-102.1 15.4-171.8 17.8-28.7 1-78.1-.4-112.9-3-51.1-4-104.6-12.4-152.6-24-17.8-4.3-55.5-14.7-56.3-15.5-.2-.2 1-2.4 2.6-5l3-4.8 23.3-5.7c12.9-3.2 43.9-10.8 68.9-17 25-6.2 78.3-19.2 118.4-29.1l72.8-17.9 69.7 19.1c150.3 41.1 171.6 46.9 173.7 46.9 1.2 0 4.9-1.3 8.4-2.8l6.2-2.9-12.8-3.6c-7.1-2-28.4-7.9-47.4-13.1-108.5-29.8-172.1-47.3-184-50.5l-13.5-3.7-.3-200-.2-199.9 79.7-135.1 79.7-135.1 7.6 4.8c4.1 2.6 35.2 22 69 43.2 65.2 40.7 107.3 67.2 207.6 130.2 56.8 35.7 61.9 39.1 60.3 40.5-1 .8-39 100-84.5 220.5C1106.6 1155 1109 1148.7 1109 1150c0 1.3 2.7.7 7.9-1.8 4-1.9 2.4 2 34.1-82.2 18.5-49.3 41.6-110.3 66.2-175.5 7.9-20.9 31.5-83.1 52.3-138.3 20.9-55.2 38.1-99.8 38.3-99 .3.7 1.5 2.4 2.7 3.8 1.7 1.9 169.9 378.4 183.8 411.5 1.4 3.3 4.4 10 6.7 15 2.3 4.9 5.3 11.7 6.7 15 1.4 3.3 3.4 7.7 4.5 9.9l1.9 3.8 2.6-2.3c1.4-1.3 2.9-3.1 3.4-4 .8-1.7-7.5-21.6-30.9-73.4-4.9-11-39-87.7-75.7-170.5s-72.8-164-80.1-180.5c-7.3-16.5-13.1-30.1-13-30.3.2-.1 23.7 4.7 52.2 10.8 78.9 16.8 80.8 17.2 82 18.4 2.4 2.3 22.3 75.8 31.8 117.6 10 43.8 14.3 65.1 21.1 104.5 2 11.5 3.7 21.1 3.9 21.2.1.1 19.9-19.5 43.9-43.5l43.8-43.8v-34.5c0-44.8-2-74.7-7.7-114.6-22.2-157.1-91.4-305.2-197.5-422.8-15.8-17.5-47.5-49-63.9-63.5C1209.3 94.3 1056.1 25.3 897 6c-39.2-4.7-98.6-6.9-135-5zm295.5 274.1c11.7 2.2 39.2 9.1 54.5 13.6 65.8 19.3 137.1 53.4 197 94.1 23.2 15.7 23.5 16 30.2 26.9 23.7 38.4 51.2 94.8 74.4 152.3 13.8 34.3 38.3 104.4 37 105.7-.3.4-3 .1-5.8-.5-2.9-.6-33-7.1-66.8-14.4-33.8-7.3-63.7-13.3-66.5-13.3-4.8-.1-7.5-1.7-60.5-35.2-125.8-79.4-257.6-162.7-273.6-172.9l-17.1-11 19.4-33c10.7-18.1 19.8-33.3 20.3-33.8 1-1 14 1.7 41.1 8.4 41.7 10.5 75.6 21.5 117.4 38.3 33.6 13.4 55 23.2 97.8 44.4 19.1 9.5 35.2 17.3 35.7 17.3.6 0 1-.4 1-.8 0-1.7-46.5-40.7-63.4-53.1-45.1-33.4-93.1-59.1-147.8-79.5-17.5-6.5-45.6-15.8-51.5-17.1-1.8-.3-3.5-1.1-3.8-1.5-.3-.5 4.2-9 10.1-19 9.2-15.5 10.9-17.9 12.8-17.5 1.1.2 4.8.9 8.1 1.6zm-272.7 827.5c-.8.7-264.1 64.5-264.5 64-.2-.1 22.7-39.1 50.7-86.7l50.9-86.4 8.4-4.6c16.2-8.7 30.5-20.9 41.4-35 16.8-21.9 26.7-49.9 28.2-79.9l.6-13.5 41.5-70.3 41.5-70.3.8 191.1c.5 105.2.7 191.3.5 191.6zM511 1243.9c7.4 3.2 20 8.2 28 11.1 8 3 14.6 5.5 14.8 5.6.9.6-53.9 72.2-55.6 72.6-1.1.3-4.2.2-6.8-.3-2.7-.4-11-1.3-18.4-1.9-15.4-1.2-43.3-5-45-6-.8-.5 7.7-15.8 25-45.1 14.4-24.4 26.8-45.4 27.6-46.6l1.4-2.2 7.8 3.5c4.2 2 13.8 6.2 21.2 9.3z"/><path d="M1003.5 734.1c-56.1 8.1-99.5 60.3-103.1 124-2.2 38.5 10.1 75.5 34.2 103.1 27.2 31.1 69.7 45.1 107.6 35.2 28.5-7.3 53.3-26.3 69.6-53.2 5.1-8.4 13-25.4 13.8-29.7.2-1.3.9-3.7 1.5-5.2.6-1.6 1.3-3.6 1.5-4.6 2.5-10.6 2.9-13.5 3.9-27.1.3-4.4.8-8.2 1-8.6.6-1-2.3-25.7-4.1-33.5-7.4-34.5-27-64.6-53.6-82.8-20.8-14.2-48.8-21-72.3-17.6zM1319.5 1077.6c-5.5 4.6-48.8 33.1-62.5 41.1-38.3 22.5-77.1 41.3-116 56.3-25.4 9.8-35 12.6-35 10.2 0-.4.9-3.2 2.1-6.2 1.2-3 3.1-8.3 4.4-11.7l2.4-6.2-6.4 3.1c-6.4 3.2-6.5 3.2-9.1 10.5-1.5 4.1-3 7.6-3.4 7.8-.4.2-3.9-.4-7.9-1.5-9-2.5-9.3-2.5-16.9.9l-6.2 2.8 12.2 3.3c6.8 1.8 12.6 3.6 13.1 4 .8.7-31.4 9.9-52.2 15-6.8 1.6-12.6 3.2-12.8 3.4-.3.3 2.2 4 5.5 8.4 4.2 5.4 5.8 8.2 5 9-.7.7 2.2 5.2 9.2 14.6 9.5 12.6 10.4 13.5 12.9 12.9 1.4-.3 9.6-3.4 18.1-6.8 79.3-32 148.7-76.3 211-134.7 15.3-14.3 37-36.7 37-38.2 0-1.2-1.5-.5-4.5 2z"/></svg>