<svg version="1" xmlns="http://www.w3.org/2000/svg" width="682.667" height="682.667" viewBox="0 0 512.000000 512.000000"><path d="M238.5.6C197.4 4.7 170.4 12.3 138 29.1 98.2 49.7 63.1 82 39.5 119.6-4 188.9-11.8 275 18.5 351c25.3 63.5 76.9 115.6 140 141.3 30 12.3 58.2 18.2 91.5 19.3l17.5.6 42.4-42.5 42.3-42.5-9-12-9.1-12 6.2-2.2c10.7-3.8 31.8-14.5 42.7-21.8 11.8-7.8 26.5-19.9 35.5-29.2 6.7-7 6.3-6.9-4.5.5-9 6.2-23.5 14.4-33.9 19.2-10.8 4.9-25.3 10.4-25.9 9.8-.3-.3 0-1.6.6-3 1.7-3.8 1.5-4.7-.7-3.6-1 .6-2.1 2.2-2.5 3.5-.6 2.3-.9 2.4-3.6 1.5-1.9-.7-3.5-.7-4.7 0-1.9 1-1.3 1.4 4.7 3.3.7.2-3.4 1.7-9.3 3.3-10.8 2.8-11.1 3.1-7.9 6.7.8 1 1.1 1.8.6 1.8-.4 0-1.8-1.2-2.9-2.6l-2.1-2.6-12.4 2.1c-21.7 3.6-32.8 4.4-58 4.4-27.3-.1-42.9-1.5-65.6-6.2-19.3-4-28.5-6.8-27.8-8.5.6-1.6-.7-1.2 51.1-14.1 21.1-5.2 39.2-9.5 40.4-9.5 1.9 0 16.5 3.9 63.7 16.9 12.8 3.5 18.2 4.2 18.2 2.2 0-.3-18.1-5.6-40.2-11.6l-40.3-11-.6-11c-.4-6.1-.6-35.1-.5-64.5l.2-53.5 6.8-11.5c3.8-6.3 8.1-13.5 9.6-16s6.7-11.3 11.5-19.5c4.8-8.3 10-17 11.5-19.5s4.6-7.8 6.9-11.8c3.9-6.7 4.3-7.1 6.4-6.1 1.7.9 81.1 50.5 104.9 65.5 3.8 2.4 3.8 2.4 2.3 5.7-2.8 6.1-59.5 157-59.1 157.4 1.5 1.6 4.1-3.2 9.8-18.5 3.7-9.7 12.8-33.9 20.3-53.7 7.5-19.8 17.7-46.8 22.7-60 4.9-13.2 9.4-24.7 9.8-25.5 1-1.7.1-3.7 37.5 80.7 21.3 47.9 29.3 64.9 30.1 64.2.9-.7.3-3.2-2.6-9.7-3.7-8.6-42.4-95.9-54.4-122.7-3.5-7.7-6.2-14.1-6.2-14.2.3-.4 42.2 9 43 9.7 1.5 1.5 10.5 37.1 14.2 56 1.9 10.2 3.8 19.1 4 19.9.3 1 5.2-3.2 14.5-12.5l14.1-13.9-.6-17.5c-1.9-58.5-21.2-110.8-57.3-155.5-4.4-5.5-13.7-15.5-20.6-22.2-39.2-38.1-87.8-61.8-143.2-69.9-9.8-1.4-44-2.6-52-1.8zM354 91.9c20.4 5.9 43.8 16.8 62.4 29.1 9.6 6.3 10.6 7.2 14.9 14.6 5.8 10 15.4 29.9 20.5 42.9 5.5 13.8 12.6 34.5 12 35-.2.2-9.5-1.6-20.7-4-11.1-2.5-21.2-4.5-22.3-4.5-1.2 0-11.2-5.7-22.2-12.7-11.1-7-36.1-22.8-55.6-35.1-19.5-12.4-35.6-22.5-35.7-22.6-.2-.2 11.7-19.9 12.7-20.9.4-.5 7 .7 14.6 2.7 21.6 5.4 40.7 12.7 64.6 24.7 7.6 3.8 14.2 6.9 14.6 6.9.8 0-.8-1.4-14-12.2-17.1-14-34.9-23.9-57.3-31.9-6.6-2.3-12.4-4.6-12.8-5-.5-.3.4-3 2-5.8l2.8-5.2 4.5.5c2.5.3 9.2 1.9 15 3.5zM250.6 352.8c-.7.7-82.8 20.3-83.3 19.9-.2-.3 3.6-7.1 8.5-15.3 4.8-8.2 11.9-20.2 15.7-26.8 6-10.3 7.6-12.2 12.3-15.3 3-1.8 6.9-5.1 8.8-7.1 6.7-7.3 11.4-19.3 11.4-28.9 0-3.4 4.4-11.5 22.1-41.1l4.4-7.4.3 60.8c.1 33.4 0 60.9-.2 61.2zm-74.2 50.5c.5.2-3 5.5-7.8 11.9l-8.7 11.6-4.2-.5c-11.4-1.3-17.9-2.2-18.4-2.6-.2-.3.2-1.6 1-2.9.8-1.2 4.6-7.8 8.5-14.4l7.1-12.1 10.8 4.3c5.9 2.4 11.2 4.5 11.7 4.7z"/><path d="M314.9 236.4c-8.3 2.9-17.7 11.3-21.8 19.4-11 21.6-3 50.1 17 60.1 27.2 13.6 56.5-11.9 51.9-45.3-2.1-15-12.3-28.9-24.5-33.5-6.4-2.4-17-2.7-22.6-.7z"/></svg>